<?xml version="1.0" encoding="UTF-8" standalone="no"?>
<!-- Created with Inkscape (http://www.inkscape.org/) -->
<svg
   xmlns:svg="http://www.w3.org/2000/svg"
   xmlns="http://www.w3.org/2000/svg"
   version="1.0"
   width="602.36218"
   height="530.04327"
   id="svg8415">
  <defs
     id="defs8417" />
  <g
     transform="translate(-59.610218,-283.80081)"
     id="layer1">
    <path
       d="M 176.90439,348.44693 C 176.9117,348.61889 176.83741,348.54409 176.15931,348.6332 C 175.10159,348.43947 175.48889,349.3256 174.85542,349.75082 C 172.87313,350.36887 171.30191,350.59291 169.26732,350.86844 C 168.93218,350.913 168.75307,350.65296 168.70851,350.30963 C 168.36563,350.35418 168.48484,350.45037 168.1497,350.4959 C 168.19426,350.83827 168.11274,351.00285 167.77716,351.05471 C 167.43473,351.10017 167.44918,350.83156 167.40462,350.4959 C 167.1512,350.66874 166.88232,350.62297 166.65954,350.4959 C 166.74231,350.54866 166.82354,350.69891 166.84581,350.86844 C 166.89088,351.20401 166.95735,351.59862 166.65954,351.98606 C 165.69087,352.46261 164.23095,352.71669 163.12041,352.17233 C 162.06269,351.97085 161.29496,351.32234 160.32636,351.79979 C 160.32636,351.79978 160.65434,352.01571 160.6989,352.3586 C 160.7439,352.69427 160.52753,353.20844 160.14009,352.91741 C 159.67032,351.94882 158.62751,352.41791 157.90485,352.17233 C 157.74115,353.57301 156.49658,353.34158 155.48334,353.47622 C 155.5279,353.81913 155.44638,354.169 155.1108,354.2213 C 153.46455,354.78704 151.72865,354.02765 150.08151,354.59384 C 148.72539,354.77302 146.99658,354.40839 146.16984,355.89773 C 145.7824,355.60714 145.35815,355.24206 144.67968,355.33892 C 144.72468,355.6745 144.30714,356.084 144.30714,356.084 C 142.80961,355.24951 142.46679,356.62068 141.88563,357.38789 C 141.58774,357.77536 141.1851,357.5372 141.14055,357.20162 C 141.09555,356.86605 140.95428,356.45654 140.95428,356.45654 C 139.26302,356.68706 138.03342,357.686 136.29753,357.57416 C 135.95464,357.62007 136.23725,358.89325 135.17991,358.69178 C 134.83702,358.73633 134.30078,358.47586 134.24856,358.13297 C 134.15892,357.46172 135.26954,356.94882 135.17991,356.27027 C 134.79247,355.98015 134.21935,356.78453 133.87602,356.82908 C 133.92832,357.17195 133.86887,357.4703 134.24856,357.76043 C 133.95797,358.14794 133.37652,358.52793 133.13094,359.25059 C 132.79579,359.30244 132.8107,359.02744 132.7584,358.69178 C 131.74515,358.82597 130.73178,359.04219 130.15062,359.8094 C 129.71861,359.17638 128.74957,359.92906 128.66046,359.25059 C 128.60816,358.90815 129.97158,358.61712 129.59181,358.31924 C 128.09434,357.49251 128.36213,359.19113 127.72911,359.62313 C 126.80461,360.43534 125.03162,360.10036 123.81744,361.29956 C 123.81744,361.29955 123.31093,360.89737 123.25863,360.55448 C 122.58062,360.65179 122.25977,360.83746 121.5822,360.92702 C 121.62674,361.26944 121.73151,361.62657 121.39593,361.6721 C 121.06071,361.71667 120.88212,361.26216 120.83712,360.92702 C 120.50199,360.97205 120.24865,361.06874 119.90577,361.11329 C 119.95031,361.45617 120.06238,361.81382 119.7195,361.85837 C 118.6617,361.66467 117.52151,361.38129 116.55291,361.85837 C 116.26233,362.24584 115.53244,362.11207 115.62156,362.78972 C 114.56383,362.58826 114.11657,363.69887 113.01378,363.16226 C 112.62633,362.87214 112.80553,364.15337 112.08243,363.90734 C 110.38461,363.01711 108.65221,363.42315 107.05314,364.09361 C 106.20318,364.44998 105.43862,364.98127 104.63163,365.21123 C 103.61892,365.34544 102.60523,365.61343 101.83758,365.02496 C 101.45013,364.73481 101.68051,364.32444 102.02385,364.27988 C 102.35905,364.23482 102.71662,364.13057 102.76893,364.46615 C 103.05949,364.08645 103.78223,363.91501 104.07282,363.5348 L 103.88655,362.97599 C 103.16396,362.73043 102.83606,364.08542 102.02385,363.16226 C 102.36673,363.1168 102.59756,362.70732 102.21012,362.41718 C 101.48799,362.1716 101.19636,362.96109 100.90623,363.34853 C 100.51878,363.05062 100.01995,362.38753 99.974875,362.04464 C 100.84714,360.8973 102.59718,360.36069 103.14147,359.25059 C 103.77502,358.81858 104.74369,358.00624 105.37671,357.57416 C 105.3317,357.23902 105.05632,355.88253 106.12179,356.084 C 106.07678,355.74933 106.12179,355.33892 106.12179,355.33892 C 106.12179,355.33891 105.7114,355.48064 105.37671,355.52519 C 104.98919,355.23505 104.8629,354.92905 104.8179,354.59384 C 104.47545,354.63892 103.84921,354.36346 103.51401,354.40757 C 101.97922,353.23741 101.53895,350.5181 99.416065,350.12336 C 96.569776,349.47485 94.208105,348.70764 91.592725,349.75082 C 91.637352,350.0864 91.555846,350.44993 91.220185,350.4959 C 90.542156,350.58411 90.772988,349.55732 90.475105,349.93709 C 90.229073,350.66012 91.004112,350.83834 91.778995,351.42725 C 90.467434,351.94889 89.611188,353.87849 89.357485,354.59384 C 89.00775,357.05952 90.05823,359.3549 89.357485,361.85837 C 89.246015,363.59463 88.75397,365.38223 88.984945,367.07393 C 89.21555,368.76607 88.753892,370.7845 88.984945,372.47576 C 89.551122,374.11562 89.31315,376.37306 89.543755,378.06386 C 89.722878,379.41992 90.176703,380.71628 91.033915,381.97553 C 91.078906,382.31066 89.677351,382.46006 90.102565,383.09315 C 90.534562,383.71888 91.682135,383.90574 91.778995,384.58331 C 91.823104,384.91897 91.376801,384.91123 91.033915,384.95585 C 91.645095,386.9377 92.687617,388.60667 93.641695,390.54395 C 93.641701,390.54396 93.194945,390.90159 92.896615,391.28903 C 92.94163,391.62415 93.112986,391.89292 93.455425,391.84784 C 93.16476,392.23535 93.186749,392.21234 92.896615,392.59292 C 93.902098,392.45881 94.223007,393.09242 94.945585,393.338 C 95.333015,393.6359 95.094977,394.03846 94.759315,394.08308 C 94.424166,394.13487 94.357121,394.22473 94.014235,394.26935 C 95.802791,394.71634 97.680249,395.08932 99.416065,395.2007 C 100.09461,395.11113 99.74405,395.79647 99.788605,396.13205 C 100.84685,396.33352 102.31405,395.90145 103.32774,395.75951 C 103.67018,395.71452 104.07282,396.31832 104.07282,396.31832 C 105.6299,395.07367 107.22502,395.24549 108.91584,395.01443 C 114.33293,394.27682 119.61482,393.81456 124.93506,392.40665 C 125.61316,392.31022 126.21659,392.24296 126.79776,391.4753 C 127.47629,391.37798 128.22794,391.59422 128.66046,392.22038 C 128.70455,392.56284 128.25826,392.73464 127.91538,392.77919 C 127.62435,393.1667 128.13897,393.38263 128.47419,393.338 C 128.80977,393.28621 129.04775,392.53361 129.77808,392.77919 C 129.72533,392.44408 129.21927,392.22038 129.21927,392.22038 C 129.13008,391.54229 130.18847,390.96105 130.52316,390.91649 C 134.91979,390.32029 139.15908,389.09894 143.56206,388.49498 C 143.89773,388.45042 144.06812,388.90485 144.12087,389.24006 C 144.45556,389.19544 144.34409,389.10557 144.67968,389.05379 C 144.63513,388.71814 144.70978,388.35327 145.05222,388.30871 C 146.40058,388.12266 147.56321,387.59396 148.96389,387.7499 C 149.30677,387.6976 150.01445,387.35494 150.26778,386.63228 C 151.75802,387.45903 153.12188,385.08341 154.36572,386.63228 L 154.17945,387.19109 C 154.85069,387.10242 155.51344,386.86311 155.85588,386.81855 C 156.14653,386.43884 155.63265,386.21519 155.29707,386.25974 C 155.5881,385.87951 156.03492,385.78244 156.41469,386.07347 C 156.80213,386.3636 156.15376,387.24332 156.78723,386.81855 C 156.74224,386.47566 156.63061,385.74549 156.9735,385.70093 C 160.11044,385.96106 162.2708,383.21982 165.16938,384.21077 C 165.19169,384.37857 165.10504,384.5238 164.98311,384.58331 C 165.82156,384.46683 166.75365,384.3216 167.59089,384.21077 C 167.5909,384.2108 167.44962,383.98755 167.40462,383.65196 C 167.7025,383.2722 168.00083,383.13726 168.33597,383.09315 C 168.67886,383.04861 168.85022,383.30908 168.89478,383.65196 C 169.5278,383.21997 169.75877,382.5938 170.38494,382.1618 C 171.01841,381.72892 171.62937,381.90765 172.06137,382.53434 C 172.22357,382.77172 172.21495,382.97977 172.06137,383.09315 C 172.29938,383.06226 172.54996,382.95185 172.80645,382.90688 C 172.41902,382.61585 171.98671,382.22171 172.62018,381.78926 C 174.25913,381.2231 176.06208,381.07406 177.4632,381.23045 C 178.1413,381.13405 178.91611,382.08007 179.88471,381.60299 C 179.88471,381.60297 179.74255,381.20035 179.69844,380.85791 C 180.28691,380.09071 181.21102,380.61144 181.93368,380.85791 C 183.32705,381.00617 184.17622,380.00055 185.10027,379.18148 C 185.44316,379.13694 185.47281,380.11283 185.47281,380.11283 C 187.8871,380.13517 190.50933,378.79389 192.92361,378.80894 C 192.8786,378.47329 193.66869,378.4364 193.66869,378.4364 L 176.90439,348.44693 z M 172.80645,382.90688 C 173.30917,382.81875 173.80991,382.74432 174.11034,382.34807 C 173.77513,382.39265 173.05203,382.18379 172.80645,382.90688 z M 107.05314,364.09361 C 107.35101,363.70616 106.196,363.54195 106.49433,363.16226 C 106.15145,363.20681 105.90586,363.30398 105.56298,363.34853 C 105.56297,363.34853 105.51842,363.57169 105.56298,363.90734 C 106.00279,364.54035 106.71025,364.13824 107.05314,364.09361 z M 159.95382,350.12336 C 159.65203,350.16349 159.18251,350.26504 158.8362,350.30963 C 158.49331,350.36148 158.60485,350.71913 158.64993,351.05471 C 158.90319,350.33214 158.91145,351.72565 159.58128,350.86844 C 159.87961,350.48093 160.34826,350.5409 160.6989,350.4959 C 160.47925,350.17938 160.25561,350.08323 159.95382,350.12336 z M 166.10073,350.30963 C 165.94991,350.29677 165.88917,350.34914 165.72819,350.68217 C 165.85387,350.6653 166.11662,350.55803 166.287,350.4959 C 166.22534,350.46492 166.16106,350.31477 166.10073,350.30963 z M 146.35611,353.28995 C 146.40156,353.6315 146.38576,354.4589 146.72865,354.40757 C 147.07153,354.3616 147.49563,354.26586 147.84627,354.2213 C 147.84626,354.22131 147.705,353.8118 147.66,353.47622 C 147.31756,353.52078 146.65489,352.90892 146.35611,353.28995 z M 137.41515,355.15265 C 137.06495,355.19817 136.83421,355.59985 137.22888,355.89773 C 137.5713,355.85316 137.81012,355.94273 138.16023,355.89773 C 138.16023,355.89772 138.57732,355.48779 138.53277,355.15265 C 138.18259,355.19767 137.75759,355.10809 137.41515,355.15265 z M 131.64078,356.64281 C 131.29834,356.69512 130.68752,356.78445 130.33689,356.82908 C 130.08364,357.55122 130.73953,357.24618 131.08197,357.20162 C 131.42439,357.157 132.08052,357.27583 131.64078,356.64281 z M 113.75886,360.74075 C 113.69203,360.77648 113.53906,360.85998 113.57259,361.11329 C 113.75876,360.87565 114.08406,360.95568 114.31767,360.92702 C 114.08716,360.92595 113.89251,360.66929 113.75886,360.74075 z M 115.62156,360.92702 C 116.01666,361.21762 115.48729,361.94748 116.18037,361.85837 C 116.18035,361.85838 116.41119,361.44798 116.36664,361.11329 C 116.32155,360.77817 115.97211,360.88202 115.62156,360.92702 z M 124.37625,415.13159 C 123.60418,415.15122 122.95691,415.2618 122.32728,415.6904 C 120.72469,416.59948 118.34132,416.65178 116.73918,417.5531 C 115.77057,418.02973 113.6468,417.86611 113.01378,418.29818 C 110.54025,420.35461 107.59719,422.57539 105.93552,425.56272 C 105.98053,425.89832 106.49433,426.12153 106.49433,426.12153 C 106.24876,426.84366 104.52717,427.01562 105.00417,427.98423 C 106.20391,429.19849 105.82383,431.00918 106.6806,432.26844 C 106.7697,432.94692 105.50345,432.38005 105.93552,433.01352 C 105.98006,433.34864 106.47987,433.46846 106.86687,433.7586 C 106.23383,434.19067 105.99482,434.90549 105.74925,435.6213 C 106.38226,435.19651 107.30646,435.34651 107.98449,435.24876 C 108.32014,435.20422 108.22306,434.46679 108.17076,434.13114 C 107.74607,433.49813 107.06126,433.68439 106.6806,433.38606 C 107.59743,432.57385 109.15486,433.42308 110.03346,432.26844 C 110.99477,431.79188 112.32123,431.8807 113.38632,432.08217 C 114.44455,432.28319 114.06426,434.13837 114.87648,435.06249 C 114.87647,435.06248 115.28597,434.92167 115.62156,434.87622 C 115.96399,434.83159 115.94999,435.10034 115.9941,435.43503 C 115.40608,436.20357 114.77194,436.32912 115.24902,437.29773 L 115.80783,437.29773 C 115.80783,437.29774 115.85238,436.89553 115.80783,436.55265 C 116.34399,435.44986 117.39425,436.44074 117.48426,437.11146 C 117.23823,437.83455 117.75972,438.64692 116.73918,438.78789 C 116.4036,438.8329 116.29958,437.95318 115.62156,438.04281 C 115.66611,438.3784 115.77042,438.74333 115.43529,438.78789 C 116.53808,439.3245 116.9402,440.15213 116.73918,441.2094 C 117.0816,441.16528 117.76739,441.51533 117.67053,440.83686 L 117.29799,440.46432 C 117.20112,439.78673 118.07317,440.14453 118.41561,440.09178 C 120.29336,441.2173 120.12154,443.15368 121.02339,444.74853 C 121.45539,445.38205 122.0519,444.63699 122.14101,445.30734 C 122.66219,446.61884 122.88602,447.64674 124.37625,448.47393 C 125.15112,449.06242 124.83104,450.48564 125.3076,451.45425 C 125.78512,452.41518 127.62554,452.90715 128.10165,453.87576 C 128.19127,454.5543 128.385,455.61961 128.47419,456.29727 C 129.42826,458.23456 130.85107,459.04654 132.38586,460.20894 C 132.05071,460.25396 132.15458,460.61836 132.19959,460.95402 C 132.54203,460.90894 132.90011,460.80463 132.94467,461.14029 C 132.98922,461.48317 133.08593,462.10129 133.13094,462.44418 C 133.94269,463.36875 134.41277,464.27722 135.17991,464.86569 C 135.99211,465.79026 135.84318,467.98012 136.85634,467.84601 C 138.59267,467.94965 138.28711,470.34195 140.02293,470.45379 C 139.72505,470.83399 139.76185,471.29513 139.09158,471.38514 C 141.25983,472.12231 141.15515,474.52171 142.44444,476.41443 C 143.21158,476.9956 143.39777,477.65901 144.12087,477.90459 C 144.93309,478.82866 146.17744,479.9014 146.35611,481.25745 L 146.91492,480.88491 C 147.63794,481.13049 146.75115,482.30801 147.47373,482.56134 C 147.8094,482.50901 147.87637,482.41918 148.21881,482.37507 C 148.98646,482.96355 148.75512,483.84235 149.5227,484.42404 L 149.70897,429.66066 C 149.23287,428.69198 148.35292,427.69447 148.21881,426.68034 C 147.74174,425.71263 146.46012,426.53139 145.98357,425.56272 C 145.5065,424.60141 145.45464,423.5361 144.67968,422.95494 C 144.25497,422.3292 143.65884,421.42767 142.25817,421.27851 C 141.87071,420.98114 141.60183,420.64489 141.51309,419.97462 C 141.55771,420.31019 141.47531,420.66694 141.14055,420.7197 C 140.79766,420.7638 140.81301,420.12304 140.76801,419.78835 C 140.13498,420.21258 139.62863,418.87272 139.09158,419.97462 C 138.47353,417.99271 137.45978,418.16445 135.92499,416.99429 C 135.58984,417.03981 134.95676,417.88057 134.6211,417.92564 C 133.89897,417.68053 133.6668,416.30852 132.94467,416.06294 C 132.60953,416.10749 132.54203,417.13467 132.19959,417.18056 C 130.57517,415.33927 129.19714,416.15944 127.1703,416.43548 C 126.83508,416.48003 126.84231,415.84657 126.79776,415.50413 C 126.07492,415.25811 125.14832,415.11197 124.37625,415.13159 z M 607.00185,514.41351 L 507.71993,514.97232 L 427.99637,655.79245 C 427.75035,656.51554 429.58413,659.77839 429.6728,660.4492 C 429.38268,660.83664 429.03881,661.17884 428.74145,661.56682 C 428.68186,663.6382 428.27205,665.47843 427.43756,666.96865 C 427.19154,667.69084 427.19183,668.20554 427.62383,668.83135 C 427.66837,669.16646 427.16933,669.74774 426.87875,670.13524 C 426.43124,671.91563 426.17077,673.52494 425.38859,675.3508 C 425.47816,676.03568 425.43292,677.13214 425.57486,678.14485 C 424.30061,686.57975 420.50869,694.29759 419.24168,702.73249 C 418.94389,703.11994 418.26577,703.51489 418.31033,703.85011 C 417.22979,706.06247 417.02819,707.95562 417.00644,710.36956 C 416.71533,710.75021 416.1794,711.09974 415.88882,711.48718 C 415.59049,711.87463 415.4344,710.54815 415.14374,710.92837 C 414.98736,712.32907 414.02597,713.49169 414.21239,714.84004 C 414.88273,714.75087 414.91195,715.06321 414.95747,715.39885 C 414.75601,716.45711 413.10952,716.94111 412.9085,718.00664 C 412.55066,720.45825 411.89451,723.46092 410.85953,726.01625 C 410.91129,726.35183 411.03864,726.64927 411.41834,726.9476 C 410.59158,728.43788 410.44221,729.72639 410.67326,731.41808 C 410.71737,731.76051 409.85352,732.707 409.55564,733.09451 C 409.65296,733.76436 410.36047,734.60708 410.11445,735.32975 C 409.81658,735.71671 409.51063,736.48432 409.55564,736.81991 C 409.45102,738.5557 409.47353,740.67167 409.36937,742.40801 C 409.59268,744.09874 410.59123,746.71493 408.99683,747.62357 C 408.02049,748.10054 408.6909,745.56738 407.87921,744.64325 C 407.34207,745.74602 408.19214,747.02774 407.3204,748.18238 C 407.02207,748.56982 407.52872,749.7995 408.25175,750.04508 C 407.96074,750.43204 407.98307,750.40951 407.69294,750.79016 C 407.73749,751.1326 407.91698,751.57976 408.25175,751.53524 C 408.59506,751.49017 409.1831,751.34897 409.1831,751.34897 C 409.38366,750.29131 408.25905,748.99457 409.1831,748.18238 C 409.8161,747.75077 409.92058,748.82356 410.30072,749.11373 C 410.05426,749.83675 409.99516,750.25334 409.74191,750.97643 C 409.78644,751.31153 410.6287,751.75161 410.67326,752.09405 C 410.47176,753.15278 410.69569,754.82837 411.41834,755.07437 C 412.23778,755.99791 412.47673,758.18171 414.02612,756.93707 C 413.98157,756.60142 413.87673,755.86445 414.21239,755.81945 C 415.70264,756.64667 414.84556,754.98448 415.51628,754.8881 C 415.85873,754.84309 416.48503,754.74683 416.82017,754.70183 C 418.03487,753.50261 417.93742,751.87011 419.24168,751.34897 C 420.55226,750.82735 419.94988,749.5898 420.91811,749.11373 L 421.66319,749.67254 C 422.58688,748.85211 422.78043,747.4001 424.0847,746.87849 C 425.77549,746.64793 426.72936,745.50003 427.99637,744.64325 C 429.3001,744.12115 430.1121,742.54892 430.60415,741.10412 C 430.94702,741.05953 430.93206,741.51403 430.97669,741.8492 C 431.31225,741.80503 431.94537,741.70704 432.28058,741.66293 C 432.23594,741.31959 432.31746,740.96237 432.65312,740.91785 C 433.33113,740.82182 434.03889,741.11127 434.32955,740.73158 C 434.91845,739.96391 435.17134,739.56186 436.19225,739.42769 C 436.52739,739.37577 436.75106,738.68261 436.75106,738.68261 C 439.68703,740.00867 439.41867,735.75379 441.40781,735.14348 C 441.75068,735.098 441.92199,735.5457 441.96662,735.88856 C 442.30219,735.83664 442.9353,735.7464 443.27051,735.70229 C 443.61294,735.64953 443.59894,735.92551 443.64305,736.2611 C 443.88953,735.53813 444.51464,735.12142 444.76067,734.3984 C 445.19267,735.02414 445.90839,734.63688 446.25083,734.58467 C 446.87656,734.15943 447.09262,733.04235 448.11353,732.90824 C 448.02443,732.23063 448.18774,731.6115 448.48607,731.23181 C 450.42288,730.2781 450.833,728.45272 452.77028,727.50641 C 453.11318,727.45407 453.29899,725.6663 453.8879,724.89863 C 454.17846,724.51893 454.58842,724.74931 454.63298,725.0849 C 454.67752,725.42781 454.77469,726.2322 454.81925,726.57506 C 455.83972,726.43319 455.60889,725.05521 455.56433,724.71236 C 456.44336,723.56493 456.54798,722.14159 457.42703,720.98696 C 459.18558,718.68448 460.18375,715.78594 460.77989,712.6048 C 460.98134,711.54661 462.80651,711.69593 463.38767,710.92837 C 467.52233,700.72811 468.47657,689.81239 471.21101,679.44874 C 471.25512,679.79118 471.61323,679.86593 471.95609,679.82128 C 471.00245,677.88401 471.73227,676.06584 472.5149,674.23318 C 472.80548,673.85343 472.03763,672.9365 472.32863,672.55675 C 472.62648,672.16931 472.20983,671.52783 472.88744,671.43913 C 473.61047,671.68471 473.21534,672.4078 473.25998,672.74302 C 473.89342,672.31868 473.90748,671.19397 473.81879,670.50778 C 473.48321,670.56012 473.11824,670.65668 473.07371,670.32151 C 472.88762,668.96493 473.96781,667.71409 473.44625,666.40984 C 474.11652,666.32073 473.32698,665.38229 474.00506,665.29222 C 474.07236,663.21351 474.48936,661.48456 474.93641,659.70412 C 475.18199,658.98151 476.55353,658.55634 476.79911,657.84142 C 477.05286,657.11834 475.72602,657.24566 475.68149,656.91007 C 475.92749,656.18788 475.7414,655.21844 476.79911,655.41991 C 476.41215,655.12981 476.4711,654.63746 476.42657,654.30229 C 477.35065,653.48276 477.78989,652.76665 478.28927,651.32197 C 478.20016,650.65116 477.79037,650.0855 477.35792,649.45927 C 477.26929,648.78125 477.41729,647.39558 478.47554,647.59657 C 477.18679,645.70383 479.51144,644.35541 479.9657,642.56728 C 479.62326,642.61193 479.26515,642.53718 479.22062,642.19474 C 479.17562,641.85957 479.03435,641.63593 479.03435,641.63593 C 479.33173,641.25624 479.608,640.16842 480.71078,640.70458 C 480.66626,640.36214 480.72568,640.43677 480.33824,640.14577 C 480.29372,639.81054 480.18893,639.44569 480.52451,639.40069 C 480.86695,639.35616 481.29928,639.25942 481.64213,639.21442 C 481.59755,638.87198 481.46301,638.57365 481.08332,638.28307 C 480.56171,636.97203 482.16375,636.42073 481.64213,635.11648 C 481.30696,635.16148 480.94205,635.07952 480.89705,634.74394 C 481.57549,634.64708 480.7773,633.7236 481.45586,633.62632 L 481.8284,633.99886 C 482.32003,632.55311 482.20106,631.43602 482.01467,630.08719 C 481.97056,629.74427 482.64769,629.35701 482.94602,628.96957 C 483.11357,628.94728 483.25985,629.03388 483.31856,629.15584 C 483.46358,627.94488 483.78415,626.76026 484.24991,625.80298 C 484.54776,625.41554 484.69672,626.74923 484.99499,626.36179 C 485.77673,624.53587 485.50898,622.42055 486.29888,620.58742 C 487.08062,618.76245 485.20338,615.90087 488.16158,614.81305 C 488.16158,614.81305 488.1319,614.20965 487.78904,614.25424 C 488.42296,613.82227 487.89341,612.89819 488.90666,612.76408 C 488.13899,612.17517 487.09576,611.86247 487.97531,610.71511 C 488.55647,609.94744 490.66511,610.43913 489.46547,609.22495 C 489.42047,608.8893 488.47481,608.64367 488.72039,607.92106 C 489.25697,606.8187 490.56074,606.26668 491.1419,605.49955 C 490.08413,605.29033 489.59291,604.73247 489.83801,604.00939 C 490.91939,601.7965 490.96344,598.63742 493.19087,597.30367 C 492.76659,596.67834 492.90744,595.56072 492.81833,594.88216 C 492.766,594.54699 493.42173,594.47993 493.37714,594.13708 C 493.33262,593.80143 493.24315,593.16877 493.19087,592.83319 C 494.02536,591.34297 494.57684,590.66506 494.68103,588.92152 C 494.63692,588.5873 495.27716,588.40682 495.61238,588.36271 C 495.86565,587.63968 495.5157,586.9923 495.42611,586.31374 C 497.01319,580.24181 499.04774,574.86955 500.64167,568.80436 C 500.88767,568.08133 501.45423,567.59685 502.13183,567.50047 C 501.27553,566.24077 501.4013,564.21474 502.3181,563.40252 C 503.15259,561.90505 502.98152,560.60765 503.80826,559.11831 C 505.17939,556.51755 504.94776,553.07586 506.22977,549.80481 C 506.57221,549.7607 507.37791,549.67085 507.71993,549.61854 C 508.2124,548.1733 510.40204,549.11956 510.51398,547.3833 C 511.95193,547.87492 513.16671,547.45006 514.61192,547.94211 C 515.33447,548.18769 517.1378,547.89681 518.15105,547.75584 C 517.67396,546.78717 517.87621,545.73623 519.26867,545.89314 C 519.60473,545.84813 519.59621,546.29534 519.64121,546.63822 C 519.35063,547.01835 519.0675,546.90601 519.45494,547.19703 C 520.51278,547.39804 520.69953,546.42953 520.9451,545.70687 C 521.23568,545.31944 521.64512,545.55845 521.69018,545.89314 C 521.35454,545.93816 521.27258,546.29623 521.31764,546.63822 C 521.80916,545.19345 523.55241,545.40094 524.48423,544.58925 C 524.81892,544.54419 524.7375,545.42389 525.41558,545.33433 C 526.76388,545.15558 527.61381,544.83558 528.76844,545.70687 L 528.58217,546.07941 C 528.62718,546.41508 528.66455,546.64634 528.95471,546.26568 C 529.25346,545.87824 529.17842,545.00635 529.51352,544.96179 C 530.1838,544.87223 531.57769,545.02073 531.37622,546.07941 C 531.71914,546.02667 531.59939,545.93777 531.93503,545.89314 C 531.89051,545.55755 531.97193,545.19351 532.30757,545.14806 C 532.65001,545.10395 533.19392,544.99912 533.23892,545.33433 C 533.28351,545.67722 532.9707,545.69972 532.68011,546.07941 C 535.13858,546.4378 538.2607,546.37804 540.876,545.33433 C 540.876,545.33433 540.73383,545.11111 540.68973,544.77552 C 541.27047,544.00874 542.67927,544.14206 543.11124,544.77552 C 543.54374,545.4095 542.4629,546.86249 543.85632,547.01076 C 543.81167,546.67562 543.36409,545.79599 544.04259,545.70687 C 544.76478,545.95289 544.43807,546.95146 545.16021,547.19703 C 546.21887,547.39844 546.62026,546.66036 547.20918,545.89314 C 547.49928,545.50571 547.90919,545.74428 547.95426,546.07941 C 547.99884,546.41502 547.95426,546.82449 547.95426,546.82449 L 548.69934,546.82449 C 548.99725,546.44479 548.02179,545.423 548.69934,545.33433 C 549.42242,545.57991 549.7201,546.51856 549.81696,547.19703 C 550.7852,546.72004 552.07443,547.37526 552.61101,546.26568 C 552.90117,545.8859 552.90975,547.24881 553.54236,546.82449 C 554.42233,545.66893 555.6808,545.36369 557.08149,545.5206 L 557.26776,546.26568 C 557.6034,546.22062 557.864,546.12442 558.19911,546.07941 C 558.1541,545.74473 558.04979,545.38619 558.38538,545.33433 C 558.72823,545.28977 558.89912,546.11637 558.94419,546.45195 C 560.63492,546.22776 562.2381,545.59504 563.97348,545.70687 C 564.65204,545.61002 563.86195,544.6856 564.53229,544.58925 C 564.87562,544.54419 565.04562,545.18591 565.0911,545.5206 C 565.43306,545.47603 565.72412,545.53558 566.02245,545.14806 C 566.44726,545.78115 567.06538,545.95268 567.69888,545.5206 C 568.03404,545.47605 568.25769,544.77552 568.25769,544.77552 C 572.8844,545.87108 577.55611,544.46289 582.22794,545.89314 C 581.75085,544.93178 582.86871,545.15529 583.15929,544.77552 C 585.4167,546.19125 589.34357,546.71996 591.91398,545.33433 C 592.54014,544.91003 592.6441,546.33989 593.0316,546.63822 C 593.75462,546.8765 595.19221,546.69768 595.82565,546.26568 C 595.82565,546.26567 595.72092,545.52776 596.01192,545.14806 C 596.34661,545.10353 596.71247,544.99189 596.757,545.33433 C 596.80254,545.66949 596.71247,545.73653 596.757,546.07941 C 598.06804,545.55785 599.83418,546.26628 600.66867,544.77552 C 601.04836,545.06617 601.26533,545.37889 601.60002,545.33433 C 601.93566,545.28977 602.56147,545.19992 602.90391,545.14806 C 604.09634,546.36276 605.16931,546.64605 606.81558,546.07941 C 607.15116,546.03486 607.21774,546.69098 607.56066,546.63822 C 608.86395,546.11657 609.34855,545.42449 610.54098,546.63822 C 610.92842,546.93653 611.27116,545.78928 611.6586,546.07941 C 612.5158,547.34596 614.01299,546.07986 614.82519,547.01076 C 614.98166,545.61008 616.47879,546.10877 617.06043,545.33433 C 617.35101,544.95367 618.53593,546.20675 618.73686,545.14806 C 618.64727,544.46952 617.49246,543.91838 617.06043,543.28536 C 616.97126,542.60691 618.07332,543.11407 618.36432,542.72655 C 618.3189,542.38321 618.22305,542.12989 618.17805,541.7952 C 618.76696,541.02709 620.1903,541.0569 619.66821,539.74623 C 618.9906,539.8349 618.93082,539.66383 618.55059,539.37369 C 620.39833,537.74161 619.04258,534.73893 619.1094,532.66797 C 619.01212,531.98987 617.99947,532.22078 617.61924,531.92289 C 617.56691,531.58768 618.20773,531.40864 618.55059,531.36408 L 618.55059,530.619 L 617.80551,530.80527 C 617.03832,530.2241 616.89675,529.15075 616.12908,528.57003 C 616.03955,527.89203 615.62976,527.71341 615.19773,527.07987 C 614.77297,526.45415 614.96711,525.30673 614.82519,524.28582 C 614.14717,524.38314 613.78178,523.48896 613.14876,523.91328 C 612.2397,522.31887 611.58356,520.70251 610.72725,519.4428 C 610.2498,518.47463 609.4236,517.43876 609.23709,516.08994 C 609.14798,515.41139 608.54381,516.16415 608.11947,515.53113 C 607.64202,514.56255 607.8144,515.33808 607.00185,514.41351 z M 175.6005,515.34486 C 176.54638,517.28214 175.24353,516.24619 176.53185,518.13891 C 176.91981,518.42903 177.40374,517.69894 177.83574,518.32518 C 177.88082,518.66717 177.2697,519.52424 177.64947,519.81534 C 179.09515,520.30688 180.08618,521.91595 179.88471,522.98193 C 179.9297,523.3175 179.39281,524.04009 178.76709,524.47209 C 178.7671,524.47209 178.25239,524.25572 178.20828,523.91328 C 175.92812,524.91102 173.58878,524.7778 171.31629,525.77598 C 170.97341,525.82829 169.98319,526.66233 169.63986,526.70733 C 166.98037,527.41494 164.70721,528.01092 162.00279,528.38376 C 161.3247,528.47294 162.11478,529.41227 161.44398,529.50138 C 161.10109,529.54646 161.116,529.27771 161.07144,528.94257 C 160.48297,529.70977 160.11767,529.74785 159.39501,529.50138 C 158.67244,529.25535 158.59055,530.6342 157.53231,530.43273 C 158.63511,530.96887 157.11469,531.2147 157.15977,531.55035 C 156.77224,531.26022 156.78723,530.619 156.78723,530.619 C 155.38611,530.46306 154.1416,531.25195 152.87556,532.10916 C 152.53999,532.16101 151.90732,532.25088 151.57167,532.29543 C 149.15738,532.27992 146.81046,533.68091 144.49341,534.3444 C 144.4934,534.34438 143.47339,534.0384 143.56206,534.71694 C 143.18235,534.42585 142.7801,534.4856 142.44444,534.53067 C 142.1543,534.91811 141.6174,535.44705 141.32682,535.83456 C 138.71107,536.8782 134.94163,535.30518 133.31721,538.62861 C 133.03393,539.01605 132.61676,538.59076 132.57213,538.25607 C 132.90733,538.21061 132.94467,537.51099 132.94467,537.51099 C 132.22209,537.26541 131.7082,538.38236 131.08197,538.81488 C 125.0846,540.31919 119.71212,541.81748 113.75886,543.6579 C 113.42321,543.70298 113.43087,543.25526 113.38632,542.91282 C 111.06203,543.57587 108.29727,544.68611 105.74925,543.6579 C 105.79387,543.99349 105.90541,544.35023 105.56298,544.40298 C 105.22731,544.4471 104.59467,544.5447 104.25909,544.58925 C 103.91665,544.63335 103.74535,544.36521 103.70028,544.03044 C 102.68756,544.16462 102.10566,544.0826 101.0925,544.21671 C 101.13705,544.55914 101.24136,544.91634 100.90623,544.96179 C 100.22812,545.05048 99.907818,545.2447 99.229795,545.33433 C 99.282094,545.66993 99.199694,546.03486 98.857255,546.07941 C 97.508428,546.2654 96.428068,546.0128 95.504395,546.82449 C 94.58809,547.63714 93.030652,548.24789 91.592725,547.75584 C 90.192058,547.59985 88.709116,547.72604 87.308515,547.56957 C 86.593154,547.32355 86.235897,546.60082 86.190895,546.26568 C 85.237258,544.3284 85.341575,542.33196 85.073274,540.30504 C 85.021405,539.96946 85.296948,539.98436 85.632085,539.9325 C 85.453337,538.58366 85.281748,537.50384 85.818355,536.39337 C 85.483224,536.43883 84.850126,536.53509 84.514464,536.57964 C 84.559473,536.91476 84.663403,537.28061 84.328194,537.32472 C 83.99261,537.36934 83.628117,537.47404 83.583114,537.13845 C 83.106484,536.16978 84.804301,535.87189 84.328194,534.90321 C 83.023929,535.42486 83.419864,533.99429 82.651764,533.41305 C 82.309326,533.45722 82.048399,533.4436 82.092954,533.78559 C 82.137963,534.12118 82.272072,534.42629 82.651764,534.71694 C 82.11517,535.82697 79.477795,534.9398 80.043984,536.57964 C 80.386435,536.53418 80.744508,536.43078 80.789064,536.76591 C 81.020111,538.45717 78.442289,540.49832 80.602794,541.23639 C 80.111709,542.68119 80.304834,544.07462 81.161604,545.33433 C 81.206172,545.67633 80.565916,545.66232 80.230254,545.70687 C 81.429452,546.92159 81.265844,548.77645 82.465494,549.99108 C 82.465488,549.99109 82.249123,550.31855 81.906684,550.36362 C 81.750217,551.76423 83.582888,550.50541 83.769384,551.85378 C 83.858484,552.53182 82.592307,553.08302 83.024304,553.71648 C 83.747396,553.96296 84.939083,552.33071 85.073274,553.34394 C 85.005913,555.4149 83.202754,557.03939 80.975334,558.37323 C 81.020337,558.7084 80.960433,558.82043 81.347874,559.11831 C 81.392442,559.45392 81.496741,559.63257 81.161604,559.67712 C 80.819159,559.72986 80.38687,559.81884 80.043984,559.86339 C 79.172157,561.01805 79.246599,563.1793 78.367554,564.33387 C 78.03197,564.3785 77.853371,563.73766 77.808744,563.40252 C 77.272125,564.50534 77.145921,565.41416 77.622474,566.38284 C 78.002685,566.67386 78.643234,567.00916 78.740094,567.68674 C 79.321251,566.91959 80.75941,566.96379 81.347874,566.19657 C 82.807713,564.27429 85.109932,561.63632 87.122245,563.77506 C 87.077236,563.4394 86.973378,562.702 87.308515,562.65744 C 87.986084,562.56734 88.739146,563.14979 89.171215,563.77506 C 89.193484,563.96156 89.208546,564.19968 89.171215,564.33387 C 89.491832,564.14014 89.916295,564.1476 89.916295,564.1476 C 90.870379,566.07712 92.87434,567.05379 93.827965,568.99063 C 93.827971,568.99063 94.714759,568.84221 94.759315,569.1769 C 94.804318,569.51206 94.170851,569.69064 93.827965,569.73571 C 95.362836,570.90578 96.100531,573.22995 97.925905,574.01992 C 98.64855,574.25822 99.803805,573.14793 99.602335,574.20619 C 99.743758,575.21943 98.380255,574.62361 97.367095,574.765 C 98.558991,575.9796 99.043454,576.91083 100.53369,577.74532 C 100.57825,578.08042 100.6754,578.90079 100.71996,579.23548 C 101.53217,580.16683 102.21772,581.04644 102.39639,582.40207 C 103.07493,582.31295 103.12701,582.67071 103.51401,582.96088 C 104.80329,584.85362 106.74028,585.50941 107.98449,587.05882 C 109.22922,588.61585 109.7206,590.72461 110.96481,592.27438 C 111.35224,592.57223 110.37634,592.60191 110.03346,592.64692 C 110.84522,593.57052 112.3432,593.84644 111.89616,595.62724 C 112.23137,595.58271 112.41041,595.47834 112.45497,595.81351 C 111.48673,596.2906 111.23356,598.33158 110.03346,597.1174 C 109.98935,596.774 110.63012,596.79028 110.96481,596.74486 C 110.9648,596.74486 110.82354,596.33536 110.77854,595.99978 C 109.42241,596.18575 108.31254,597.41495 106.86687,596.93113 C 107.50034,596.49916 106.61316,595.8662 107.23941,595.44097 C 106.22573,595.57514 105.54047,595.31401 104.8179,595.06843 C 104.1471,595.15754 103.05995,595.05347 102.76893,595.44097 C 102.52291,596.1631 103.97596,595.88009 104.07282,596.55859 C 104.20694,597.57184 104.05068,598.98719 103.51401,600.09772 C 103.22342,600.47747 102.81393,600.25532 102.76893,599.91145 C 102.81393,600.25532 102.90967,600.87975 102.9552,601.21534 C 105.07845,601.61786 106.30024,603.1073 106.86687,604.75447 C 106.91141,605.09011 105.92017,605.58151 106.30806,605.87209 C 106.64319,605.8275 107.38157,605.72319 107.42568,606.05836 C 107.47067,606.39352 107.01626,606.57211 106.6806,606.61717 C 106.72515,606.95186 106.82134,606.83312 106.86687,607.17598 C 107.54444,607.08001 108.24504,607.07882 108.91584,606.98971 C 109.5493,606.55726 109.75718,607.80906 109.84719,608.47987 C 110.27874,609.11289 111.17305,608.42056 111.89616,608.66614 C 113.00616,609.20277 113.39384,610.55107 114.50394,611.08765 C 115.89732,611.24364 117.60339,610.90948 118.41561,611.83273 C 118.46739,612.16831 117.95388,612.64433 118.04307,613.32289 C 118.7211,613.23282 119.41439,613.03988 120.09204,612.95035 C 120.42763,612.90576 120.41272,613.36074 120.46458,613.69543 C 121.13492,613.60632 121.51477,613.19658 122.14101,612.76408 C 122.48345,612.71908 123.10201,612.62239 123.4449,612.57781 C 123.78003,612.53322 123.77288,612.79418 123.81744,613.13662 C 124.83798,612.99517 125.93391,613.22716 126.61149,613.13662 C 128.30274,612.90564 129.03285,613.24123 130.52316,614.06797 C 130.67571,614.18325 130.73092,614.32219 130.70943,614.44051 C 130.78673,614.36421 130.8957,614.25424 130.8957,614.25424 C 133.07125,615.00009 134.97136,616.41443 135.92499,618.35218 C 136.40207,619.3209 137.49688,619.24621 137.97396,620.21488 C 138.01851,620.55732 137.19147,620.7291 136.85634,620.77369 L 137.04261,621.3325 C 137.43004,621.62266 137.91443,620.89207 138.3465,621.51877 C 138.77894,622.15179 137.36336,621.63041 137.78769,622.26385 C 138.17514,622.55443 138.70421,621.48867 139.46412,622.07758 C 139.41956,621.73472 139.31473,621.01182 139.65039,620.95996 C 140.03782,621.25781 140.23163,622.02513 140.95428,622.26385 C 140.66361,622.65129 139.95632,623.10609 139.27785,623.1952 C 139.66572,623.48578 139.71737,623.84366 140.39547,623.75401 C 140.35085,623.4189 140.24653,623.06079 140.58174,623.00893 C 141.14741,624.6552 141.9158,624.87848 143.56206,624.31282 C 143.5175,623.96949 143.59946,623.61226 143.9346,623.56774 C 144.27703,623.52321 144.26258,624.15623 144.30714,624.49909 C 144.6428,624.45444 145.08917,624.36515 145.42476,624.31282 C 145.85676,624.94632 146.51258,625.58702 147.28746,626.17552 C 147.66766,626.4661 148.6283,626.4059 148.96389,626.36179 C 150.11854,627.24039 151.93676,627.60625 152.13048,626.54806 C 152.57753,624.75987 150.39407,623.78417 150.45405,621.70504 C 150.40905,621.37035 149.38918,621.11613 149.33643,620.77369 C 149.20232,619.76825 148.50954,619.13451 148.03254,618.16591 C 147.98792,617.83026 148.62875,617.65168 148.96389,617.6071 C 149.16491,616.54932 148.05564,616.10943 148.59135,614.99932 C 149.17252,614.23171 147.6749,613.12178 148.21881,612.019 C 148.50939,611.6315 148.73306,611.86241 148.77762,612.20527 C 148.82263,612.54091 148.91926,612.60791 148.96389,612.95035 C 149.97661,612.80843 150.51343,611.63901 151.57167,611.83273 C 151.52667,611.49708 151.41505,610.75969 151.75794,610.71511 C 152.10083,610.67052 152.27175,611.31087 152.31675,611.64646 C 152.99433,611.55693 153.65804,611.88548 153.99318,611.83273 C 156.45209,612.19055 158.23291,610.59566 160.51263,609.59749 C 161.89141,612.16778 164.94638,610.96867 167.21835,609.97003 C 167.89683,609.87358 168.81297,609.54533 169.82613,609.41122 C 170.16178,609.36711 170.15411,609.63403 170.19867,609.97003 C 170.5338,609.92413 170.94375,609.97003 170.94375,609.97003 C 171.23433,609.59022 170.45193,608.57625 171.13002,608.47987 C 171.80074,608.38986 171.6366,609.44853 171.68883,609.78376 C 172.94808,608.92012 174.10319,607.69759 175.41423,607.17598 C 175.74937,607.13145 176.30102,608.13701 176.34558,608.47987 C 179.8254,608.69636 182.50769,605.50724 186.03162,606.05836 C 186.03161,606.05836 186.06858,607.22098 186.40416,607.17598 C 188.05041,606.60978 189.08652,605.98391 190.87464,606.4309 C 190.83009,606.09531 190.36083,606.21405 190.31583,605.87209 C 190.27128,605.5365 190.71847,605.54419 191.06091,605.49955 C 191.39604,605.44733 191.43345,606.05836 191.43345,606.05836 C 192.53676,606.59499 191.95501,605.04529 192.92361,604.5682 C 192.92361,604.5682 193.32625,605.17153 193.66869,605.12701 C 196.47048,605.43988 198.31814,602.77249 201.11949,603.07804 C 201.14177,603.24947 201.05522,603.39097 200.93322,603.45058 C 201.74868,603.27843 202.49492,602.54188 203.35473,602.7055 C 204.07739,602.95108 205.08332,601.7599 206.14878,601.96042 C 206.097,601.62573 205.99217,601.26719 206.33505,601.21534 C 206.67026,601.17075 206.82688,602.57913 207.45267,602.14669 C 207.75047,601.76693 208.09336,601.41651 208.38402,601.02907 C 209.06205,600.93954 209.53949,601.81867 209.87418,601.77415 C 211.23075,601.5877 212.348,600.50048 213.22704,599.35264 C 213.8605,598.92067 214.33662,599.80618 214.7172,600.09772 C 214.67219,599.7616 214.56878,599.21137 214.90347,599.16637 C 215.23906,599.12226 215.76061,599.59792 216.39363,599.16637 C 217.31769,598.35369 218.30909,599.00984 219.18768,597.86248 C 220.15681,597.38539 221.76581,598.07176 222.35427,597.30367 C 222.97999,596.87158 223.4944,596.12674 224.21697,596.37232 C 225.95278,596.48462 228.13617,596.8565 228.87372,594.69589 C 229.98383,595.23252 230.90012,594.10787 231.66777,594.69589 C 232.14485,595.66455 230.43087,595.64923 230.17761,596.37232 C 231.14622,595.89523 232.61403,596.73681 233.15793,595.62724 C 233.40352,594.90415 232.08487,595.03105 232.04031,594.69589 C 232.28634,593.97376 233.00907,594.18214 233.3442,594.13708 C 233.67889,594.08486 233.71674,595.06843 233.71674,595.06843 C 235.84,595.46314 238.15772,595.14323 238.55976,593.01946 C 239.32743,593.60843 240.43715,594.19698 240.23619,595.2547 C 241.53992,594.73314 242.1883,596.07452 242.28517,596.74486 C 243.52214,598.3019 245.02683,599.79229 245.63803,601.77415 C 245.63803,601.77415 246.42043,601.63288 246.75565,601.58788 C 247.09854,601.53602 247.08318,602.36216 247.12819,602.7055 C 247.89496,603.28624 249.23646,603.10003 248.99089,603.82312 C 248.96817,606.23652 251.20385,606.5426 252.15748,608.47987 C 252.49217,608.43433 253.02929,608.04087 253.46137,608.66614 C 254.02757,610.31282 255.62225,611.21366 255.51034,612.95035 C 255.85279,612.90487 256.06915,612.76408 256.06915,612.76408 C 256.63535,614.41076 257.44762,615.66989 259.23574,616.11694 C 259.28031,616.45932 259.01206,616.44489 258.67693,616.48948 C 258.72147,616.83233 258.81819,616.89897 258.8632,617.23456 C 259.20564,617.18908 259.3779,617.07797 259.42201,617.42083 C 259.46659,617.75647 259.55552,617.82401 259.60828,618.16591 C 260.62152,618.02446 261.26168,617.95729 262.02979,618.53845 C 262.46184,619.17195 261.22525,619.58186 261.65725,620.21488 C 261.99293,620.16302 262.25346,620.25988 262.5886,620.21488 C 263.3558,620.79604 263.27422,621.82395 263.70622,622.45012 L 264.26503,622.26385 C 265.0776,623.18787 264.83911,623.96335 265.94146,624.49909 C 266.32899,624.78967 265.36722,625.69134 265.75519,625.98925 C 266.51463,626.56993 267.55798,626.29443 267.99043,626.9206 C 268.12418,627.93385 268.96618,628.88678 269.10805,629.90092 C 269.53282,630.53346 270.57608,631.17513 271.34329,631.76362 C 271.38829,632.0992 271.32831,633.14947 271.71583,633.44005 C 273.20605,634.27454 274.4274,635.765 275.6275,636.97918 C 276.77484,637.85825 277.56522,639.44534 278.42155,640.70458 C 278.80898,640.99468 279.21125,640.66727 279.16663,640.33204 C 279.59141,640.95826 280.03845,641.56172 280.47052,642.19474 C 280.51595,642.52991 280.06832,642.52186 279.72544,642.56728 C 280.76861,645.18215 282.74331,646.95616 284.75473,649.08673 C 285.14215,649.385 286.14855,648.30386 286.61743,649.273 C 286.66974,649.60769 286.05057,650.46531 286.43116,650.76316 C 288.65132,651.83548 288.76288,653.01962 289.03894,655.04737 C 289.08348,655.38164 289.76912,655.68081 290.15656,655.97872 C 290.20111,656.31395 290.34283,657.09634 290.34283,657.09634 C 291.78805,657.58881 292.54819,658.49703 292.3918,659.89039 C 292.7347,659.84587 292.80174,659.74871 293.13688,659.70412 C 293.47931,659.65912 293.46434,660.10635 293.50942,660.4492 C 293.84454,660.39734 293.91206,660.30793 294.2545,660.26293 C 295.35731,660.79951 294.016,661.6784 294.44077,662.3119 C 294.82822,662.60207 294.46275,661.32083 295.18585,661.56682 C 295.57285,661.86461 296.25891,662.16294 296.30347,662.49817 C 295.81188,663.94428 296.45323,664.04841 297.60736,664.91968 C 297.99489,665.21849 297.04087,666.11926 297.42109,666.40984 C 298.5762,667.28933 299.73859,667.86269 300.21514,668.83135 C 300.69264,669.79996 301.52618,670.71575 302.63665,671.25286 C 302.30107,671.29739 302.40582,671.66325 302.45038,671.99794 C 303.2626,672.92202 303.5832,673.17457 303.38173,674.23318 C 303.42676,674.57616 303.78348,674.46398 304.12681,674.41945 C 304.08223,674.0766 303.97064,673.71896 304.31308,673.67437 C 305.21483,675.26872 305.49805,677.03468 307.66594,677.77231 C 307.33072,677.82506 306.90588,678.22729 307.2934,678.51739 C 307.62807,678.47328 308.36646,678.36844 308.41102,678.70366 C 308.45611,679.04652 307.46477,679.52391 307.85221,679.82128 C 308.95502,680.35887 309.91601,681.52036 311.0188,682.05652 C 311.06335,682.39175 310.60841,682.57027 310.27372,682.61533 C 310.45237,683.96417 311.66665,684.81332 312.13642,685.78192 C 312.52386,686.0725 313.19503,685.33517 313.62658,685.96819 C 313.67211,686.3033 313.06017,686.9815 313.44031,687.27208 C 314.21525,687.86099 315.55634,688.03922 315.30301,688.76224 C 315.24342,690.83374 316.78579,691.39941 317.35198,693.04645 C 317.77674,693.67226 319.15478,693.71637 319.58722,694.35034 C 319.7214,695.36347 320.08657,695.95978 320.51857,696.58558 C 320.90611,696.87658 321.12149,696.55542 321.07738,696.21304 C 321.8445,696.80195 322.76856,697.39093 322.56754,698.44828 C 322.90222,698.40364 323.08127,698.29259 323.12635,698.63455 C 323.55788,699.26126 322.70925,699.78907 322.75381,700.12471 C 325.01901,701.54037 325.88367,703.85703 327.22429,706.08535 C 329.32577,708.89395 331.56036,711.26366 333.3712,714.4675 C 333.71365,714.42286 334.33988,714.3263 334.67509,714.28123 C 335.82966,715.16073 335.6586,716.61363 335.79271,717.6341 C 336.13517,717.58224 336.20213,717.67868 336.53779,717.6341 C 337.30495,718.22301 336.67183,719.2359 337.0966,719.86934 C 338.29581,721.08447 339.83142,721.98542 340.44946,723.96728 C 340.44947,723.96728 341.33581,723.8179 341.38081,724.15355 C 341.38082,724.15355 340.8071,724.60804 341.19454,724.89863 C 341.52969,724.8541 341.93194,724.79479 342.31216,725.0849 C 342.02201,725.47234 342.08178,725.6806 342.12589,726.01625 C 343.57204,726.50782 342.6549,727.67032 343.42978,728.25149 C 343.76491,728.2069 344.01869,728.29607 344.36113,728.25149 C 345.17336,729.17562 345.0022,730.07687 345.47875,731.04554 C 346.85761,733.61582 348.49618,735.80654 350.50804,737.93753 C 350.88775,738.23538 351.12668,739.41255 352.18447,739.61396 C 352.18446,739.61402 352.31851,740.20197 352.37074,740.54531 C 352.75097,740.83541 352.98141,740.50746 352.92955,740.17277 C 354.92592,744.72491 358.26477,748.38289 360.93916,752.83913 C 361.02926,753.51667 360.74485,754.22492 361.12543,754.51556 C 365.10418,758.45697 366.6838,762.95022 369.69385,767.36819 C 370.55832,768.62696 371.15459,770.06544 370.99774,771.46613 C 371.04229,771.8013 370.5951,771.78633 370.25266,771.83867 C 370.29731,772.17425 370.39438,772.24852 370.43893,772.58375 C 370.49082,772.92666 370.84113,772.81556 371.18401,772.77002 C 371.13216,772.43491 371.0347,772.07036 371.37028,772.02494 C 372.1006,772.26414 372.21252,773.02281 372.30163,773.70137 C 372.34618,774.03606 372.07796,774.02891 371.74282,774.07391 C 371.9661,775.7647 372.83064,777.29236 373.97806,778.17185 C 374.22362,777.4487 373.46381,777.2036 373.41925,776.86796 C 373.37425,776.52594 373.64337,776.17521 373.97806,776.12288 C 374.31366,776.07877 374.33563,776.39153 374.72314,776.68169 C 374.76813,777.0168 374.53687,777.42677 374.53687,777.42677 C 375.05842,778.73018 376.15333,779.70695 375.65449,781.15217 C 375.25198,783.26814 377.04004,785.68995 379.00735,787.48535 C 379.38704,787.77641 378.77698,788.63313 378.82108,788.97551 C 379.73017,790.56992 380.96669,791.74762 382.54648,793.25972 C 382.92671,793.55072 382.28548,793.9899 381.98767,794.37734 C 381.65245,794.42187 381.65969,794.16097 381.61513,793.81853 C 381.28,793.87033 380.87005,793.81853 380.87005,793.81853 C 380.62446,794.54114 381.7865,795.01853 382.17394,795.30869 C 382.85153,795.21904 383.41085,794.9132 383.6641,794.19107 C 384.42399,794.77909 384.25979,796.09919 384.59545,796.05377 C 387.39675,796.36706 390.81054,795.59224 392.60507,793.63226 C 393.23944,793.20017 394.17711,792.33606 394.46777,791.95583 C 396.02527,790.71161 396.97846,789.98888 398.19317,788.78924 C 399.40736,787.59002 400.89065,786.26395 402.10484,785.06384 C 403.61689,783.48487 405.21212,782.6865 406.38905,781.15217 C 406.68006,780.76473 406.35939,780.36203 406.01651,780.40709 C 406.30709,780.02734 406.28518,780.04945 406.57532,779.66201 C 406.91819,779.61701 407.3204,779.84828 407.3204,779.84828 C 408.96711,779.28208 409.08698,777.50926 410.30072,776.30915 C 410.64414,776.25729 410.89648,776.35326 411.23207,776.30915 C 411.82051,775.54106 411.42564,774.88557 412.34969,774.07391 C 412.64756,773.68641 412.2526,773.0755 412.16342,772.39748 C 412.06654,771.71946 413.09477,771.83867 413.09477,771.83867 C 413.28847,770.78 412.78891,770.14674 411.97715,769.23089 C 411.92438,768.88797 411.86553,768.50071 412.16342,768.11327 C 411.77598,767.8231 411.46342,767.89731 411.41834,767.55446 C 411.05315,764.84952 410.97137,761.77985 409.92818,759.17231 C 408.26697,754.57558 405.32358,750.85781 403.03619,746.69222 C 402.94702,746.01419 404.21371,746.58016 403.78127,745.94714 C 403.7367,745.61161 403.23743,745.67843 402.84992,745.38833 C 403.19327,745.34285 403.60997,744.93341 403.22246,744.64325 C 402.4549,744.05428 402.31316,743.36129 401.54603,742.78055 C 401.11393,742.14753 401.27757,741.14143 400.80095,740.17277 C 399.55675,738.62258 398.92356,736.66272 397.63436,734.77094 L 396.70301,734.77094 C 395.70527,732.49117 395.33265,729.92047 393.16388,729.18284 C 392.44173,728.93726 391.10015,729.13032 391.30118,728.06522 C 391.36847,725.99336 391.46465,724.85422 389.2522,723.78101 C 388.48506,723.19299 389.01333,721.74723 387.94831,721.54577 C 387.61274,721.59077 385.92155,721.91121 386.45815,720.80069 C 386.41362,720.46552 387.63523,720.86768 387.20323,720.24188 C 386.72662,719.27327 386.07079,719.84615 384.96799,719.31053 C 384.58054,719.01941 385.66137,717.64929 384.59545,717.44783 L 384.40918,718.00664 C 383.3064,717.46231 383.12735,716.73285 382.36021,716.14393 C 381.11591,714.59411 380.54214,712.84359 379.00735,711.67345 C 378.96324,711.33787 378.86609,710.70479 378.82108,710.36956 C 377.85243,710.84618 376.86167,710.30304 376.77211,709.62448 C 376.24326,708.31344 376.4293,706.96485 375.28195,706.08535 C 374.60348,706.17488 373.85125,706.3385 373.41925,705.71281 C 373.37425,705.37723 374.01547,705.19865 374.3506,705.154 C 374.30607,704.81842 374.51393,704.09611 373.79179,703.85011 C 373.45616,703.8947 372.73348,703.68638 372.4879,704.40892 C 371.92127,702.7623 371.07255,702.82184 369.88012,701.61487 C 369.83555,701.27244 369.73886,701.02596 369.69385,700.68352 C 368.97172,700.43795 368.85206,699.68464 368.7625,699.00709 C 367.89845,697.74785 366.51974,697.38324 366.34099,696.02677 C 366.29646,695.69155 366.56415,695.51982 366.8998,695.46796 C 367.48873,694.70035 365.72287,694.88662 365.96845,694.16407 C 365.63326,694.20908 365.36456,694.38003 365.40964,694.72288 C 364.59741,693.79887 363.80035,693.59805 362.98813,692.67391 C 361.87768,692.13829 362.10953,691.02723 362.98813,689.87986 C 362.31047,689.96939 361.08103,690.14702 360.93916,689.13478 C 360.8946,688.79145 361.16328,688.62104 361.49797,688.57597 C 361.35699,687.56237 360.91673,686.40779 360.19408,686.15446 C 359.08407,685.6183 358.53255,684.95447 358.14511,684.6643 C 357.23604,683.06214 355.35792,682.21263 354.79225,680.56636 C 354.69537,679.88834 355.40329,679.5152 354.97852,678.88993 C 354.63563,678.93404 354.28575,679.03925 354.23344,678.70366 C 354.1889,678.36122 354.09173,677.92127 354.04717,677.58604 C 352.8998,676.70703 352.17739,675.76781 351.9982,674.41945 C 351.94636,674.07701 351.26028,673.96537 350.88058,673.67437 C 350.83603,673.33915 350.74609,672.52754 350.69431,672.18421 C 350.35864,672.23655 349.6658,672.66875 349.57669,671.99794 L 349.94923,671.6254 C 347.28976,672.33347 347.46804,669.26356 346.22383,667.71373 C 345.83638,667.41588 345.62002,667.75063 345.66502,668.08627 C 345.27757,667.79521 345.3006,667.81763 344.91994,667.52746 C 345.21102,667.13996 345.17319,666.87239 345.85129,666.78238 C 345.50798,666.82828 344.78598,666.74501 344.73367,666.40984 C 345.27757,665.30021 344.09261,664.58446 343.61605,663.61579 C 343.23582,663.31794 343.00494,663.65275 343.05724,663.98833 C 342.66979,663.69727 342.51333,663.71969 342.12589,663.42952 C 342.46835,663.38494 342.8782,662.97544 342.49843,662.68444 C 342.11101,662.39434 341.75335,663.05698 341.75335,663.05698 C 340.69555,662.85647 340.80762,661.17163 339.70438,660.63547 C 339.99541,660.24803 340.69564,659.77154 340.26319,659.14531 C 338.67654,657.63322 337.44641,656.45551 336.53779,654.8611 C 334.34727,651.3662 331.99258,648.61709 329.45953,645.17506 C 328.21532,643.6179 327.28434,641.60607 325.36159,640.14577 C 325.65947,639.75833 325.59286,639.55775 325.54786,639.21442 C 324.86975,639.3117 324.44514,638.94577 324.0577,638.65561 C 324.4006,638.61102 324.62373,638.20844 324.24397,637.91053 C 323.13396,637.37389 324.16171,636.83022 323.68516,635.86156 C 322.7165,636.33865 322.10596,636.45762 321.63619,635.48902 C 321.59012,635.17132 321.55192,634.72969 321.44992,634.3714 C 322.14245,634.28223 321.86746,633.77563 321.82246,633.44005 C 321.7779,633.09713 321.41982,633.02251 321.07738,633.06751 C 321.0919,633.19441 321.07738,633.33544 321.07738,633.44005 C 321.20886,633.42336 321.19424,633.68312 321.26365,633.81259 C 320.58554,633.90897 320.19022,633.03783 320.14603,632.69497 C 318.65536,631.86823 317.61253,629.81211 316.42063,628.59703 C 315.60114,627.67337 314.4461,626.54126 313.62658,625.61671 C 313.58201,625.28154 314.22227,625.10976 314.55793,625.0579 C 314.37921,623.70865 313.61227,622.80043 312.50896,622.26385 C 313.09789,621.49618 312.67273,620.83341 311.95015,620.58742 C 311.60725,620.63194 311.34678,620.81106 311.39134,621.14623 C 309.90157,620.31174 310.19914,618.49339 309.34237,617.23456 C 306.37687,613.15849 303.18831,609.49318 299.8426,605.12701 C 299.79757,604.7919 299.1125,604.48624 298.72498,604.19566 C 296.10238,600.07548 293.18903,596.6626 289.59775,593.01946 C 289.55317,592.68387 288.16705,592.52806 287.73505,591.90184 C 287.31028,591.2684 287.79495,590.11376 287.36251,589.48033 C 286.98275,589.19022 286.43884,590.32972 286.05862,590.03914 C 284.90351,589.16054 285.08964,587.81105 284.56846,586.50001 C 283.71122,585.24076 282.78779,583.98879 281.58814,582.77461 C 283.48818,581.48532 285.93173,581.53038 287.92132,580.91191 C 288.25644,580.86738 289.1136,581.85816 289.41148,581.47072 C 289.99263,580.70305 290.69302,580.18894 291.27418,579.42175 C 291.61664,579.37674 291.9747,579.27333 292.01926,579.60802 C 292.31671,579.2288 292.28704,579.25038 292.57807,578.86294 C 293.05509,579.83839 294.01607,578.975 294.44077,579.60802 C 294.45758,579.72455 294.59639,579.69814 294.62704,579.79429 C 294.67698,579.68467 294.83005,579.6321 294.99958,579.60802 C 295.34245,579.56301 295.51339,580.2042 295.55839,580.53937 C 295.55838,580.53937 295.78154,580.58401 296.1172,580.53937 C 296.02711,579.86176 296.38587,579.42985 296.67601,579.04921 C 297.98804,578.52807 299.51469,579.72747 300.77395,578.86294 C 303.54528,576.41907 301.9137,577.9022 304.87189,576.81397 L 289.22521,549.05973 C 288.84543,548.76959 288.19722,548.79873 288.10759,548.12838 C 287.08714,548.26259 285.9096,548.02437 284.941,548.50092 C 284.30796,548.93345 283.39145,549.81949 282.33322,549.61854 C 281.26822,549.41707 280.68689,550.1471 280.09798,550.92243 C 279.12928,551.39901 278.04938,550.21453 276.74512,550.73616 C 276.06708,550.82526 276.52152,551.80923 276.18631,551.85378 C 274.74061,551.36217 273.20658,552.68097 271.71583,551.85378 C 271.67174,551.51089 271.93175,551.34005 272.27464,551.29497 C 271.20863,551.09446 270.49382,550.96684 269.48059,551.1087 C 268.46736,551.24235 269.55524,552.35314 268.92178,552.78513 C 268.57933,552.83014 267.67012,553.4186 267.24535,552.78513 C 267.19304,552.44991 267.51358,552.24123 267.80416,551.85378 C 267.08115,551.60822 266.15738,551.45911 265.56892,552.22632 C 265.61303,552.56967 265.21835,553.28374 265.94146,553.53021 C 264.68221,554.38654 263.33405,554.313 262.02979,554.8341 C 261.68737,554.87918 261.7018,554.23789 261.65725,553.90275 L 260.91217,553.90275 C 260.9567,554.23842 261.40392,554.93082 260.7259,555.02037 C 260.48712,555.05726 260.23407,555.11038 259.98082,555.02037 C 259.10954,556.16818 258.11052,555.7437 257.0005,555.20664 C 257.12891,555.19011 257.11638,554.92797 257.18677,554.8341 C 257.34875,554.81197 257.54052,554.82914 257.74558,554.8341 C 257.70102,554.49897 258.11812,554.08902 258.11812,554.08902 C 257.63327,553.12034 257.38794,554.56543 257.0005,554.27529 C 256.29007,553.97549 255.45574,554.61904 254.76526,554.08902 C 252.99898,551.2277 250.86104,548.74732 248.80462,546.26568 C 248.76006,545.93099 248.65523,545.56471 248.99089,545.5206 C 249.03544,545.86304 249.73597,545.70687 249.73597,545.70687 C 249.93699,544.64864 250.12341,543.65082 250.66732,542.54028 C 250.83917,542.51763 251.02612,542.39028 251.22613,542.35401 C 250.68926,542.99564 250.22958,543.52092 250.66732,544.40298 C 251.65095,543.92688 252.61212,544.72337 253.64764,544.58925 C 253.60265,544.255 253.49147,544.07455 253.83391,544.03044 C 253.09682,543.78396 251.71043,544.25397 251.22613,543.28536 C 251.1738,542.95105 251.62877,542.77111 251.97121,542.72655 C 252.16506,542.47947 251.97192,542.45787 251.78494,542.35401 C 252.07505,541.96657 251.45695,542.13086 251.4124,541.7952 C 250.93532,540.82661 252.28399,541.39979 252.53002,540.67758 C 253.25269,540.92317 252.73923,541.92216 253.46137,542.16774 C 253.75238,541.78029 254.06473,541.01272 254.02018,540.67758 C 254.89966,539.52248 256.68026,540.33477 257.55931,539.18742 C 257.55931,539.18742 257.88729,539.59737 257.93185,539.9325 C 258.26748,539.88795 258.33449,539.79079 258.67693,539.74623 C 258.62505,539.40333 258.52031,539.04526 258.8632,539.00115 C 260.21199,538.81472 260.71822,540.08793 262.02979,539.55996 C 262.36494,539.51407 262.26061,539.33592 262.21606,539.00115 C 261.88041,539.04571 261.70225,538.96383 261.65725,538.62861 C 261.61223,538.28618 261.50838,537.92809 261.84352,537.88353 C 262.47697,537.45145 263.09517,537.8088 263.51995,538.44234 C 263.90737,538.73248 264.31003,538.21822 264.26503,537.88353 C 265.07726,538.80714 264.84619,539.91037 264.26503,540.67758 C 265.27817,540.54342 265.54634,540.46255 266.314,541.05012 C 266.2617,540.7077 266.34365,540.53542 266.68654,540.49131 C 267.02169,540.44677 266.90291,540.35005 267.24535,540.30504 C 267.58092,540.25273 267.61789,539.55996 267.61789,539.55996 C 266.93985,539.65638 266.24746,539.83564 265.56892,539.9325 C 265.23422,539.97704 265.241,539.53031 265.19638,539.18742 C 265.68799,537.74174 266.5975,536.98154 267.99043,537.13845 C 268.33377,537.08661 268.2141,536.43793 268.54924,536.39337 C 269.22682,536.30383 269.92749,536.11769 270.59821,536.02083 C 272.05117,536.51288 270.45634,538.17426 270.59821,539.18742 C 270.93336,539.14243 271.29821,539.03811 271.34329,539.37369 C 270.90438,539.4323 270.82615,540.12085 270.59821,540.49131 C 271.35602,540.27528 272.03912,539.92312 272.27464,539.00115 C 272.56523,538.61371 272.97464,538.85221 273.01972,539.18742 C 272.68404,539.23198 272.45412,539.64192 272.83345,539.9325 C 273.22088,540.2231 273.43681,539.89562 273.39226,539.55996 C 273.34727,539.21707 273.36216,538.77033 273.01972,538.81488 C 273.94385,538.00222 273.355,536.3103 274.32361,535.83456 C 274.32363,535.83457 274.734,536.25166 275.06869,536.2071 C 275.35973,535.81968 275.29184,535.50613 275.6275,535.46202 C 276.64119,535.32015 277.23657,534.77737 277.86274,534.3444 C 278.20516,534.30032 279.06232,534.91037 279.3529,534.53067 C 279.30789,534.18779 279.94866,533.8297 280.28425,533.78559 L 269.66686,515.53113 L 175.6005,515.34486 z M 430.60415,520.37415 C 429.56864,520.51603 428.8465,520.61258 427.8101,520.74669 C 427.85564,521.08867 427.95226,521.52873 427.99637,521.86431 C 427.7508,522.58653 426.55083,522.2148 425.9474,522.98193 C 425.55997,522.69089 424.92619,522.91532 424.82978,522.23685 C 424.14447,522.32684 424.24131,523.30217 423.89843,523.35447 C 422.42315,522.85511 422.60907,523.46594 421.66319,524.28582 C 421.23118,523.65281 419.77799,523.86157 419.98676,522.79566 C 420.28466,522.41589 420.75427,522.46723 421.10438,522.42312 L 420.91811,521.67804 C 420.57565,521.72304 420.1439,521.8202 419.80049,521.86431 C 419.15251,522.29639 419.69618,523.48121 419.05541,523.91328 C 414.95753,524.80052 411.17983,525.33631 406.94786,525.21717 C 406.25432,525.30582 405.94185,525.76831 405.64397,526.14852 C 405.30065,526.19307 405.31598,525.7391 405.27143,525.40344 C 404.03443,526.59542 402.15662,526.23026 401.17349,526.70733 C 398.79688,527.37084 395.97276,526.44707 393.35015,527.82495 C 392.65749,527.92226 391.47999,527.69799 390.74237,527.45241 C 390.04883,527.54152 389.89297,528.89131 389.2522,529.31511 C 388.60368,529.74717 388.82721,528.29331 388.13458,528.38376 C 387.79169,528.42788 387.3372,528.59924 387.3895,528.94257 C 386.15981,527.72793 384.99795,529.16602 383.6641,529.68765 C 383.32168,529.73222 381.9429,529.95536 381.8014,528.94257 C 381.74912,528.5997 382.2036,528.61459 382.54648,528.57003 C 382.50151,528.23437 382.40522,527.78755 382.36021,527.45241 C 381.332,527.58658 381.03442,528.71175 380.68378,528.7563 C 379.00707,529.3225 377.09965,530.32097 375.28195,529.87392 C 375.33424,530.20913 375.43812,530.57445 375.09568,530.619 C 374.0593,530.75265 373.1058,529.76946 372.11536,530.24646 C 371.89195,530.53161 372.13257,531.56446 372.11536,531.92289 C 370.29765,531.47585 367.86043,531.46102 365.78218,531.73662 C 365.83449,532.07229 365.40964,532.4817 365.40964,532.4817 C 364.27728,531.94509 365.69329,531.11031 365.59591,530.43273 C 365.55138,530.09754 364.85083,530.24646 364.85083,530.24646 C 364.94723,530.92404 364.58991,531.16291 364.29202,531.55035 C 364.33613,531.89375 364.32168,532.34774 364.66456,532.29543 C 363.12247,533.88255 363.45761,531.79675 361.87051,533.04051 L 379.19362,562.65744 C 379.72299,563.96893 382.2112,563.99151 383.10529,562.84371 C 383.06117,562.50128 382.59901,562.00967 383.29156,561.91236 C 384.28253,561.43619 383.72386,563.12729 384.40918,563.02998 C 385.10172,562.94089 386.04076,562.55298 385.89934,561.53982 C 385.55603,561.58438 385.19882,561.50197 385.15426,561.16728 C 385.05742,560.48874 386.36055,561.09293 386.27188,560.4222 C 386.70394,561.04792 387.02449,561.66686 387.76204,561.91236 C 388.93899,562.78373 389.47535,561.38329 390.36982,560.23593 C 391.01062,559.80341 392.43355,560.28846 392.23253,561.35355 C 392.57539,561.3017 392.97761,561.16728 392.97761,561.16728 C 392.93303,560.83162 392.4708,560.32594 393.16388,560.23593 C 393.50678,560.19182 394.23641,560.07932 394.2815,560.4222 C 394.28147,560.42221 393.70778,560.69043 394.09523,560.98101 C 394.48997,561.27889 394.70634,560.94316 394.65404,560.60847 C 394.6095,560.2728 394.62393,560.00504 394.2815,560.04966 C 395.17605,558.90225 396.05449,560.8542 396.70301,560.4222 C 397.00088,560.03478 396.24851,558.98383 396.88928,558.5595 C 398.16353,560.10932 399.62402,558.23972 400.80095,559.11831 C 400.50262,559.50576 400.6371,560.28094 400.98722,560.23593 C 401.92585,559.42416 402.79716,558.4695 403.78127,558.00069 C 404.13099,557.9484 404.83168,558.67156 405.27143,559.30458 C 405.75573,560.26595 406.6119,558.73102 407.69294,558.93204 C 407.64785,558.59691 407.73749,558.5303 407.69294,558.18696 C 408.49016,556.36196 409.85367,558.37338 411.23207,558.18696 L 412.16342,557.81442 C 412.115,557.47511 411.91339,557.27868 411.79088,557.25561 L 412.53596,557.25561 L 434.32955,520.93296 C 433.20449,520.39725 430.49224,522.11809 430.60415,520.37415 z M 268.73551,539.9325 C 268.6051,539.91959 268.52134,540.01077 268.36297,540.11877 L 268.36297,540.86385 C 268.96539,540.89982 269.49753,540.77294 270.0394,540.67758 C 269.49746,540.49307 269.12673,539.97126 268.73551,539.9325 z M 204.65862,554.08902 C 205.75858,553.93913 207.08032,554.23059 207.82521,554.64783 C 208.21266,554.93797 208.03346,556.01155 207.82521,557.06934 C 209.81481,556.45862 211.29721,558.56636 212.10942,559.49085 C 212.92937,560.41497 213.0033,561.04107 214.15839,561.91236 C 214.2025,562.24802 214.78426,562.67943 214.53093,563.40252 C 214.87382,563.35024 215.27601,563.21625 215.27601,563.21625 C 216.42336,564.09574 216.67713,566.15947 215.27601,566.0103 C 214.59843,566.09994 213.66716,566.56181 212.8545,565.63776 C 211.68532,567.17258 210.21692,566.92705 208.57029,567.50047 C 208.27963,567.88069 207.74281,568.4165 207.45267,568.80436 C 206.43944,568.93811 204.96411,568.34318 204.28608,568.43182 C 202.59482,568.66333 200.99313,570.02569 199.25679,569.92198 C 199.30187,570.2572 199.41349,570.61472 199.07052,570.66706 C 198.7354,570.71158 198.28804,570.62247 197.9529,570.66706 C 197.65456,571.05456 197.4984,571.5835 197.20782,571.97095 C 195.27099,572.92465 193.05028,571.68007 191.24718,573.64738 C 190.56952,573.73655 189.64586,572.8505 189.01194,573.27484 C 186.53894,575.33847 183.75935,574.68328 181.1886,576.06889 C 180.26499,576.88156 179.27404,577.14949 178.39455,578.30413 C 177.76153,578.73615 176.69517,578.36385 175.97304,578.11786 C 175.58553,577.82775 176.91929,577.48525 176.53185,577.18651 C 176.53186,577.18651 176.12191,577.14144 175.78677,577.18651 C 175.87633,577.85678 175.70436,578.66135 175.41423,579.04921 C 175.41423,579.04921 175.08625,578.64698 175.04169,578.30413 C 174.07301,578.78068 172.88789,578.5357 171.8751,578.67667 C 171.91921,579.01177 172.01681,579.07841 172.06137,579.42175 C 171.19009,580.56863 169.93819,579.40684 169.63986,579.79429 C 169.10369,580.90487 167.99308,580.70305 167.40462,581.47072 C 165.43738,579.66709 163.24692,583.05774 160.6989,582.02953 C 160.31146,581.7312 161.64523,581.57461 161.25771,581.28445 C 160.19999,581.08345 160.03608,583.19245 159.02247,583.33342 C 158.29982,583.08742 158.25496,581.71671 157.53231,581.47072 C 156.46677,581.26972 156.0645,581.99966 155.48334,582.77461 C 155.14089,582.81919 154.89488,582.7296 154.55199,582.77461 C 154.21632,582.81919 154.2322,582.55823 154.17945,582.2158 C 153.84431,582.26765 153.76906,582.17121 153.43437,582.2158 C 153.47893,582.55096 153.58324,582.91629 153.2481,582.96088 C 152.23487,583.10274 150.71498,583.08718 150.08151,583.51969 C 149.83549,584.24223 149.23197,584.22745 149.70897,585.19612 C 149.75361,585.5317 149.49304,585.52455 149.15016,585.56866 C 148.77047,585.27849 148.30844,585.12858 148.21881,584.45104 C 147.54034,584.54015 146.60213,585.0319 146.35611,585.75493 C 145.24608,585.21787 144.24775,586.32894 143.18952,586.12747 C 142.85386,586.17301 142.63071,586.87255 142.63071,586.87255 C 140.41739,585.792 139.22637,583.84001 138.90531,581.47072 C 138.81613,580.79263 138.29441,580.24914 138.16023,579.23548 C 138.11524,578.89304 138.56972,578.90794 138.90531,578.86294 C 138.33867,577.21667 136.37189,575.94198 136.4838,574.20619 C 136.68483,573.14841 137.8993,574.0794 138.53277,573.64738 C 138.77879,572.92471 137.51201,573.39447 137.41515,572.71603 C 137.37059,572.38128 137.26673,572.20132 137.60142,572.15722 C 138.57778,571.67971 138.74191,573.21559 139.46412,573.46111 C 141.4987,573.18555 143.85226,572.17951 145.7973,571.22587 C 146.13287,571.18086 145.5737,570.02688 146.54238,569.54944 C 146.87752,569.50533 146.86992,569.76539 146.91492,570.10825 C 147.98045,570.30924 147.96511,569.23638 148.59135,568.80436 C 148.93378,568.75935 148.91889,569.57912 148.96389,569.92198 C 149.68699,570.1598 148.84468,569.08707 149.5227,568.99063 C 150.19304,568.9005 150.06661,569.63181 150.45405,569.92198 C 149.97705,568.95337 150.90132,569.18447 151.19913,568.80436 C 151.72076,570.1086 153.47155,569.92203 153.99318,571.22587 C 154.03773,571.56878 154.20143,570.23431 154.92453,570.48079 C 154.06046,569.22106 150.93068,569.4676 151.3854,567.68674 C 152.16803,565.86135 154.61912,568.30479 156.60096,567.68674 C 156.94339,567.64221 157.11521,568.46871 157.15977,568.80436 C 157.15977,568.80436 157.37569,568.66267 157.71858,568.61809 C 157.62172,567.94054 157.94181,567.17248 158.27739,567.12792 C 158.95497,567.03837 159.3658,567.3372 159.95382,566.56911 C 160.24485,566.18168 160.65427,566.59832 160.6989,566.94165 C 161.57838,565.78655 162.15247,564.94499 163.30668,565.82403 C 163.26257,565.48069 163.20282,565.09386 163.49295,564.70641 C 163.96996,565.6751 164.88573,565.93617 165.54192,565.07895 C 165.8325,564.69873 166.59934,565.05601 166.84581,564.33387 C 167.27781,564.95958 168.41793,565.09386 168.70851,564.70641 C 169.25242,563.60361 170.15464,563.2164 171.50256,563.02998 C 172.1811,562.94176 171.6141,564.02079 172.24764,563.58879 C 172.19534,563.25319 172.09102,562.88968 172.43391,562.84371 C 173.44708,562.7023 173.80523,562.00245 174.48288,561.91236 C 174.81801,561.86826 175.3395,562.90325 175.97304,562.47117 C 177.8657,561.18196 179.81013,560.81702 181.74741,559.86339 C 182.08985,559.81886 182.0754,560.07932 182.11995,560.4222 C 182.45509,560.37721 182.52259,560.47406 182.86503,560.4222 C 182.82093,560.08708 182.71616,559.7289 183.0513,559.67712 L 183.42384,560.04966 C 183.37875,559.70677 183.26767,558.97615 183.61011,558.93204 C 184.28136,558.84251 185.13045,559.05856 185.84535,559.30458 C 186.2328,559.59518 185.8157,560.00511 185.47281,560.04966 C 185.13723,560.09424 185.25599,560.00466 184.914,560.04966 C 185.43511,561.36077 183.41609,562.03195 182.49249,562.84371 C 182.20191,563.23115 182.52989,563.44708 182.86503,563.40252 C 183.20024,563.35795 183.31231,563.41743 183.61011,563.02998 C 183.94576,562.98536 184.31064,562.88112 184.35519,563.21625 C 184.40705,563.5519 184.35519,563.96133 184.35519,563.96133 C 184.92183,564.15459 185.24206,563.27556 185.65908,563.02998 C 185.34622,563.04505 184.95178,563.06702 184.914,562.84371 C 184.82489,562.16516 185.92001,562.10534 186.21789,561.72609 C 186.29248,561.7111 186.32958,561.7334 186.40416,561.72609 C 185.68159,561.07759 186.26998,559.7596 186.40416,558.5595 C 186.40417,558.5595 187.14156,558.44834 187.52178,558.74577 C 188.15524,558.31416 188.39382,557.97141 188.6394,557.25561 C 189.45936,558.17244 190.80758,558.01522 191.61972,558.93204 C 191.67204,559.27492 190.22672,559.37157 190.31583,560.04966 C 189.98025,560.09421 189.98837,559.82606 189.94329,559.49085 C 189.31027,559.91607 189.45139,560.54894 188.82567,560.98101 C 188.48278,561.02602 188.49769,560.76516 188.45313,560.4222 C 188.11747,560.4745 187.67065,560.37765 187.33551,560.4222 C 187.03718,560.80189 188.1399,561.003 187.89432,561.72609 C 188.95256,561.92705 189.07177,560.22163 190.12956,560.4222 C 190.51699,560.71277 190.45799,561.01112 190.5021,561.35355 C 190.88231,561.64465 191.45551,560.92171 192.17853,561.16728 C 192.08897,560.4897 191.3737,559.84089 191.61972,559.11831 C 191.91037,558.73086 193.01317,558.67827 192.92361,558.00069 C 193.73627,558.92429 193.10273,560.31104 193.48242,560.60847 C 194.63753,561.48075 194.98704,560.41468 195.53139,559.30458 C 196.11255,558.54425 197.14047,559.17732 197.76663,558.74577 C 198.10908,558.6999 198.0941,558.9617 198.13917,559.30458 C 198.4743,559.25961 198.88425,559.30458 198.88425,559.30458 C 198.83926,558.96944 198.69798,558.18696 198.69798,558.18696 C 196.91709,557.73992 195.73204,558.70919 194.04123,558.93204 C 193.53266,559.0047 193.64945,558.26758 193.48242,558.00069 C 194.67785,557.40713 194.9746,555.56451 196.27647,555.39291 C 196.61161,555.34838 196.79073,555.8033 196.83528,556.13799 C 197.5133,556.04887 198.01944,555.86187 198.69798,555.76545 C 198.6529,555.42978 198.72808,555.06493 199.07052,555.02037 C 199.88274,555.94405 200.33716,556.61507 201.30576,556.13799 C 201.59634,555.75011 201.08984,555.53463 200.74695,555.57918 C 201.04484,555.19899 200.95528,554.40136 201.6783,554.64783 C 202.06582,554.93797 202.22221,555.66159 202.60965,555.95172 C 202.60965,555.95172 203.01908,555.9968 203.35473,555.95172 C 202.85903,554.81573 203.55867,554.23892 204.65862,554.08902 z M 83.769384,564.52014 C 83.426052,564.56471 83.024304,564.70641 83.024304,564.70641 L 83.024304,565.26522 L 83.769384,565.26522 C 83.769378,565.26524 83.821242,564.85483 83.769384,564.52014 z M 99.229795,603.45058 L 99.416065,604.19566 C 100.15369,604.44124 100.1908,605.35828 100.53369,605.31328 C 101.52463,604.83672 100.09409,604.35993 100.34742,603.63685 C 100.04952,604.01708 99.528054,603.06314 99.229795,603.45058 z M 494.12222,610.71511 C 494.17456,611.05022 494.51676,611.13265 494.8673,611.08765 C 494.51676,611.13265 494.12222,610.71511 494.12222,610.71511 z M 126.05268,614.62678 C 125.98583,614.65682 125.93369,614.80536 125.86641,614.81305 C 125.93369,614.80536 125.99315,614.66457 126.05268,614.62678 z M 126.23895,616.30321 C 126.1317,616.35417 126.02835,616.50623 126.05268,616.67575 C 126.14135,617.34608 127.58769,616.96597 127.72911,617.97964 C 127.77366,618.32208 128.31757,618.21777 128.66046,618.16591 C 128.5709,617.49468 127.84832,617.2125 128.10165,616.48948 L 127.91538,616.86202 C 127.57294,616.9066 127.40157,616.63879 127.35657,616.30321 C 127.20763,616.49305 126.91977,616.30506 126.61149,616.30321 C 126.45735,616.30225 126.3462,616.25224 126.23895,616.30321 z M 480.15197,665.66476 C 480.18106,665.76895 480.12926,665.91725 480.15197,666.0373 C 480.49441,665.99182 480.91195,665.95588 480.52451,665.66476 C 480.39803,665.67984 480.26343,665.66476 480.15197,665.66476 z"
       id="path5517"
       style="fill:#cdcdcd;fill-opacity:1;fill-rule:nonzero;stroke:none" />
    <path
       d="M 393.58298,735.06718 L 361.68424,680.11753 L 175.18139,356.47338 L 143.51549,301.52373 L 207.08013,301.52373 L 580.78435,301.52373 L 644.11615,301.52373 L 612.45025,356.47338 L 425.24888,680.11753 L 393.58298,735.06718 z M 393.58298,588.37955 L 517.2197,374.63471 L 270.41194,374.86754 L 393.58298,588.37955 z"
       id="path5575"
       style="fill:#d80027;fill-opacity:1;stroke:none;stroke-width:9.83500957;stroke-linecap:butt;stroke-linejoin:miter;stroke-miterlimit:3.86400008;stroke-dasharray:none;stroke-opacity:1" />
    <path
       d="M 142.81698,409.72976 L 142.81698,410.66111 L 142.81698,520.37415 L 142.81698,521.3055 L 143.74833,521.3055 L 643.69704,521.3055 L 644.25585,521.3055 L 644.25585,520.37415 L 644.25585,410.66111 L 644.25585,409.72976 L 643.69704,409.72976 L 143.74833,409.72976 L 142.81698,409.72976 z"
       id="path5577"
       style="fill:#000000;fill-opacity:1;fill-rule:nonzero;stroke:none" />
    <path
       d="M 215.27601,423.70002 C 195.53124,423.75954 174.30443,436.59752 173.7378,465.61077 C 173.17214,494.46764 192.39416,509.77926 218.62887,508.63914 C 234.40952,507.95382 244.24474,498.90862 251.59867,489.08079 C 248.40265,485.66922 237.44216,481.07119 237.44214,481.07118 C 231.75033,488.32826 225.51356,492.25444 217.13871,492.43365 C 204.05526,492.71648 191.27006,484.47662 190.68837,467.84601 C 189.55555,435.13737 224.53765,431.4265 237.62841,447.35631 C 243.88001,441.67179 250.29478,437.67027 250.29478,437.67027 C 242.18816,428.28218 231.60101,423.64042 215.27601,423.70002 z M 355.7236,424.25883 C 344.06355,443.36245 329.99622,479.69257 328.90072,483.67896 C 328.90072,483.67896 315.0351,448.07112 302.82292,424.63137 C 301.0053,425.39858 289.70191,428.88629 285.87235,428.1705 C 296.79522,450.999 319.21469,505.10002 319.21468,505.10001 C 321.38249,506.21055 336.9178,506.43415 338.58676,505.28628 C 338.58676,505.28628 354.01065,465.976 372.86044,428.72931 C 367.779,428.58789 363.249,426.53131 355.7236,424.25883 z M 428.18264,425.56272 C 422.84248,425.67657 418.44449,426.07311 416.07509,426.68034 C 417.8191,431.5376 416.07509,440.46432 416.07509,440.46432 L 452.21147,440.46432 L 453.51536,454.80711 C 453.38073,462.08648 455.57916,474.12718 451.09385,481.81626 C 445.99738,490.55591 440.72986,491.18273 432.46685,490.94349 C 425.32936,490.73569 416.58137,487.27814 413.65358,473.24784 C 408.06547,477.3762 401.35976,479.02221 401.35976,479.02221 C 405.40574,499.2586 420.67245,506.29222 432.65312,506.21763 C 453.78359,506.21763 463.65627,494.02089 467.29934,481.62999 C 471.1889,468.76209 468.23069,440.52325 468.23069,426.68034 C 468.23069,426.68034 444.20312,425.22115 428.18264,425.56272 z M 585.20826,426.3078 C 583.01903,426.36934 580.77891,426.51996 578.68881,426.86661 L 557.45403,470.82633 L 535.66043,427.05288 C 528.61216,425.95739 518.33732,427.05288 518.33732,427.05288 C 518.33732,427.05288 511.15517,501.63518 511.44533,505.10001 C 511.44533,505.10001 522.07047,505.25641 528.58217,506.03136 C 528.58217,506.03136 531.2126,457.40066 532.68011,456.66981 C 538.17177,466.96696 550.1895,489.08079 550.1895,489.08079 C 554.25054,488.44054 560.9041,488.44055 566.02245,489.08079 C 570.83566,479.18657 577.05667,466.23724 582.41421,456.48354 C 582.82347,456.34257 585.49145,491.38287 585.76707,506.21763 C 592.76307,505.36042 597.6508,505.2123 603.09018,505.10001 L 597.87462,426.86661 C 597.87462,426.86661 591.77587,426.12316 585.20826,426.3078 z"
       id="path5581"
       style="fill:#ffffff;fill-opacity:1;fill-rule:nonzero;stroke:none" />
  </g>
</svg>
